<svg xmlns="http://www.w3.org/2000/svg" width="740" height="100" viewBox="0 0 740 100" fill="none"><path d="M178.015 99.2462H145.98V38.8191L88.9447 97.6131L32.0352 38.8191V99.2462H0V0H33.5427L88.9447 57.2864L144.724 0H178.015V99.2462Z" fill="#284A63"></path><path d="M459.422 40.9548L517.714 13.6935L545.854 0.628174H514.699H482.412H480.779L479.397 1.25631L394.598 40.9548V7.53772V0.628174H387.688H365.201H358.292V7.53772V92.9649V100H365.201H387.688H394.598V92.9649V71.4824L427.889 56.0302L489.322 98.7437L491.206 100H493.342H522.111H544.221L526.131 87.3116L459.422 40.9548Z" fill="#284A63"></path><path d="M700.628 23.1156H586.307V38.0653H693.216V61.1809H586.307V76.005H700.377V99.2462H554.397V0H700.628V23.1156Z" fill="#284A63"></path><path d="M339.824 8.9196C331.156 3.01508 320.603 0 308.166 0H227.638C215.201 0 204.648 3.01508 195.98 8.9196C187.312 14.9497 182.915 22.3618 182.915 31.407V67.8392C182.915 76.7588 187.312 84.2965 195.98 90.3266C204.648 96.2312 215.201 99.2462 227.638 99.2462H308.166C320.603 99.2462 331.156 96.2312 339.824 90.3266C348.493 84.2965 352.89 76.8844 352.89 67.8392V31.407C352.89 22.3618 348.618 14.9497 339.824 8.9196ZM320.98 67.7136C320.98 73.2412 316.709 76.005 308.166 76.005H227.638C219.096 76.005 214.824 73.2412 214.824 67.7136V31.407C214.824 25.8794 219.096 23.1156 227.638 23.1156H308.166C316.709 23.1156 320.98 25.8794 320.98 31.407V67.7136Z" fill="#284A63"></path><path d="M728.392 0.251221C730.402 0.251221 732.412 0.753733 734.171 1.75876C735.93 2.76378 737.311 4.14569 738.317 5.90449C739.322 7.66328 739.824 9.5477 739.824 11.6834C739.824 13.6934 739.322 15.7035 738.317 17.4623C737.311 19.2211 735.93 20.603 734.171 21.608C732.412 22.613 730.528 23.1155 728.392 23.1155C726.382 23.1155 724.372 22.613 722.613 21.608C720.854 20.603 719.472 19.2211 718.467 17.4623C717.462 15.7035 716.96 13.8191 716.96 11.6834C716.96 9.5477 717.462 7.66328 718.467 5.90449C719.472 4.14569 720.854 2.76378 722.613 1.75876C724.497 0.753733 726.382 0.251221 728.392 0.251221ZM728.392 2.13564C725.754 2.13564 723.492 3.01504 721.608 4.89946C719.724 6.78388 718.844 9.04519 718.844 11.6834C718.844 14.3216 719.724 16.5829 721.608 18.4673C723.492 20.3517 725.754 21.2311 728.392 21.2311C731.03 21.2311 733.291 20.3517 735.176 18.4673C737.06 16.5829 737.94 14.3216 737.94 11.6834C737.94 9.04519 737.06 6.78388 735.176 4.89946C733.291 3.01504 731.03 2.13564 728.392 2.13564ZM725.879 17.8392H723.869V5.5276H728.141C729.648 5.5276 730.779 5.65323 731.281 5.90449C731.784 6.15574 732.412 6.53263 732.789 7.03514C733.166 7.53765 733.291 8.16579 733.291 8.79394C733.291 9.79896 732.915 10.5527 732.286 11.1809C731.658 11.809 730.779 12.1859 729.774 12.3115C730.276 12.5628 730.653 12.814 731.03 13.3165C731.407 13.8191 731.909 14.4472 732.538 15.4522L734.045 17.8392H731.658L730.528 15.9547C729.774 14.5728 729.146 13.6934 728.643 13.3165C728.141 12.9397 727.638 12.6884 726.759 12.6884H725.628V17.8392H725.879ZM725.879 7.16077V10.9296H728.266C729.271 10.9296 730.025 10.804 730.528 10.4271C731.03 10.1758 731.281 9.67333 731.281 9.04519C731.281 8.41705 731.03 7.91454 730.528 7.66328C730.025 7.41203 729.271 7.2864 728.141 7.2864H725.879V7.16077Z" fill="#284A63"></path></svg>